<?xml version="1.0" encoding="UTF-8"?>
<svg version="1.1" xmlns="http://www.w3.org/2000/svg" width="1273" height="798">
<path d="M0 0 C-6.58312947 2.12643295 -13.27934594 3.09723715 -20.10546875 4.14453125 C-21.43282246 4.35180037 -22.76009598 4.55958358 -24.08729553 4.76783752 C-26.94703377 5.21617918 -29.80707923 5.6624835 -32.6673584 6.10736084 C-40.47758757 7.32378278 -48.28381651 8.56553659 -56.08984375 9.80859375 C-56.90330891 9.9381118 -57.71677406 10.06762985 -58.55488968 10.20107269 C-100.90551702 16.95063049 -143.20460208 24.04604559 -185.26994324 32.40711212 C-187.25732427 32.80154923 -189.24529275 33.1930229 -191.23327637 33.58441162 C-205.54053632 36.4143559 -219.73173354 39.5695136 -233.85546875 43.19921875 C-234.51335199 43.36740427 -235.17123524 43.53558979 -235.84905434 43.70887184 C-246.1025587 46.31742563 -246.1025587 46.31742563 -256 50 C-257.1572816 52.31456319 -257.12880098 53.63715796 -257.13587189 56.2134161 C-257.14072963 57.10236378 -257.14558738 57.99131145 -257.15059233 58.90719694 C-257.15103631 60.38132758 -257.15103631 60.38132758 -257.15148926 61.88523865 C-257.15572167 62.92457568 -257.15995408 63.96391271 -257.16431475 65.0347448 C-257.17739979 68.54066132 -257.18337918 72.04655506 -257.18945312 75.55249023 C-257.19739124 78.05707439 -257.20577885 80.56165715 -257.21458435 83.0662384 C-257.23267839 88.47262141 -257.24779258 93.87900005 -257.26036072 99.28539848 C-257.27865009 107.11417833 -257.30331708 114.94292825 -257.32973462 122.77168442 C-257.37256186 135.48832352 -257.41166162 148.20497093 -257.44775391 160.92163086 C-257.44991671 161.68321182 -257.45207951 162.44479279 -257.45430785 163.22945196 C-257.46962786 168.63213439 -257.48482 174.03481718 -257.5 179.4375 C-257.51730951 185.5933434 -257.53470134 191.74918656 -257.55224609 197.9050293 C-257.55440496 198.66295528 -257.55656383 199.42088127 -257.55878812 200.20177471 C-257.59496009 212.85917163 -257.63492529 225.51655391 -257.67754889 238.1739307 C-257.70364156 245.97730067 -257.72631618 253.7806663 -257.74453247 261.58405871 C-257.75875598 267.57393176 -257.77788875 273.56377881 -257.79878426 279.55363274 C-257.80651587 282.00493399 -257.81259606 284.45624111 -257.81687737 286.90755081 C-257.82296363 290.2623679 -257.83503136 293.61711418 -257.84851074 296.97190857 C-257.84895472 298.41592447 -257.84895472 298.41592447 -257.84940767 299.88911241 C-257.94554079 317.94554079 -257.94554079 317.94554079 -261 321 C-262.88033295 321.25168228 -262.88033295 321.25168228 -265.21325684 321.25396729 C-266.09660202 321.25960693 -266.9799472 321.26524658 -267.89006042 321.27105713 C-268.86155533 321.26700867 -269.83305023 321.26296021 -270.83398438 321.25878906 C-271.85518875 321.2622937 -272.87639313 321.26579834 -273.92854309 321.26940918 C-277.31701377 321.27823915 -280.70527706 321.27237283 -284.09375 321.265625 C-286.44022665 321.26697128 -288.78670302 321.26891151 -291.13317871 321.27142334 C-296.05609792 321.27437632 -300.97894466 321.27007133 -305.90185547 321.26074219 C-312.22411619 321.24934761 -318.54620712 321.25590615 -324.86846161 321.26788712 C-329.71532479 321.27510099 -334.56214747 321.27281995 -339.40901184 321.26763153 C-341.7407076 321.26629373 -344.07240699 321.26794729 -346.40409851 321.27259064 C-349.65817053 321.27764809 -352.91196441 321.26995654 -356.16601562 321.25878906 C-357.13751053 321.26283752 -358.10900543 321.26688599 -359.10993958 321.27105713 C-359.99328476 321.26541748 -360.87662994 321.25977783 -361.78674316 321.25396729 C-362.55660805 321.25321323 -363.32647293 321.25245918 -364.11966705 321.25168228 C-366 321 -366 321 -368 319 C-368.24839699 317.18065584 -368.24839699 317.18065584 -368.24609566 314.92764854 C-368.25007775 314.07023453 -368.25405985 313.21282052 -368.25816262 312.32942426 C-368.25233693 311.38196761 -368.24651125 310.43451096 -368.24050903 309.45834351 C-368.24307231 307.95507474 -368.24307231 307.95507474 -368.24568737 306.42143691 C-368.24899841 303.0417916 -368.23795204 299.66234205 -368.22705078 296.28271484 C-368.22648702 293.86865748 -368.22680255 291.45459977 -368.22793579 289.0405426 C-368.22839217 283.83218852 -368.22269593 278.62387922 -368.21146011 273.41553879 C-368.19522544 265.88510089 -368.1899992 258.35468723 -368.18748413 250.82423373 C-368.18310383 238.60741814 -368.16978565 226.39062922 -368.15087891 214.17382812 C-368.13252877 202.30436334 -368.11836803 190.43490579 -368.10986328 178.56542969 C-368.10907511 177.46849698 -368.10907511 177.46849698 -368.10827102 176.34940402 C-368.105661 172.68084788 -368.10313357 169.01229169 -368.10064721 165.34373546 C-368.07990427 134.89580454 -368.04452126 104.44790597 -368 74 C-372.02359819 75.0669973 -376.04676664 76.1355974 -380.06958294 77.2055378 C-381.43149104 77.56753871 -382.79350571 77.92913895 -384.15563869 78.29029274 C-397.9357135 81.94448332 -411.63515834 85.85307082 -425.3125 89.875 C-426.5199588 90.22884766 -427.7274176 90.58269531 -428.97146606 90.94726562 C-458.11060492 99.49734707 -487.18970924 108.39656975 -516 118 C-517.60184268 121.69929661 -517.14993093 125.97938016 -517.15148926 129.94644165 C-517.15572167 130.75290803 -517.15995408 131.55937442 -517.16431475 132.39027917 C-517.17734274 135.09563721 -517.18336587 137.80096576 -517.18945312 140.50634766 C-517.19739522 142.44455648 -517.20578315 144.38276352 -517.21458435 146.32096863 C-517.23264333 150.49576933 -517.24765808 154.6705661 -517.26036072 158.84538651 C-517.28056665 165.44125137 -517.30821982 172.03707196 -517.33703613 178.63290405 C-517.40225408 193.82213754 -517.4577008 209.01140379 -517.51302338 224.20067596 C-517.56383176 238.12547336 -517.61667873 252.05025466 -517.67754889 265.97501218 C-517.70595158 272.5376454 -517.72952782 279.10027327 -517.74947357 285.6629374 C-517.76282784 289.73726469 -517.7802416 293.81156714 -517.79878426 297.88587379 C-517.80656231 299.78139813 -517.8126222 301.67693038 -517.81687737 303.5724659 C-517.8228936 306.15086178 -517.83492669 308.7291602 -517.84851074 311.30752563 C-517.84895472 312.44446961 -517.84895472 312.44446961 -517.84940767 313.60438216 C-517.8859068 318.7718136 -517.8859068 318.7718136 -519 321 C-521.74949779 321.91649926 -523.38017792 322.12913925 -526.21289062 322.14044189 C-527.07092285 322.14615204 -527.92895508 322.15186218 -528.81298828 322.15774536 C-529.75126465 322.15886322 -530.68954102 322.15998108 -531.65625 322.16113281 C-533.1419751 322.16858017 -533.1419751 322.16858017 -534.65771484 322.17617798 C-537.93848358 322.19079935 -541.21920402 322.1976005 -544.5 322.203125 C-546.77539064 322.20887513 -549.05078127 322.21463287 -551.32617188 322.22039795 C-556.09765855 322.23090694 -560.86912838 322.23675072 -565.640625 322.24023438 C-571.76437919 322.24572817 -577.88791205 322.26977563 -584.01159668 322.29820633 C-588.71094421 322.31679571 -593.41023794 322.32203627 -598.10961914 322.32357025 C-600.36793227 322.32660414 -602.6262443 322.33465729 -604.88452148 322.34775543 C-608.03777121 322.36474342 -611.19047353 322.36295372 -614.34375 322.35644531 C-615.28202637 322.3656601 -616.22030273 322.37487488 -617.18701172 322.3843689 C-618.04504395 322.37879974 -618.90307617 322.37323059 -619.78710938 322.36749268 C-620.53263062 322.36895924 -621.27815186 322.3704258 -622.04626465 322.3719368 C-624.60687117 321.88446863 -625.47583639 321.09532157 -627 319 C-627.38476086 317.0866394 -627.38476086 317.0866394 -627.39872742 314.88232422 C-627.41753464 313.62360001 -627.41753464 313.62360001 -627.4367218 312.33944702 C-627.43456917 310.96099106 -627.43456917 310.96099106 -627.43237305 309.5546875 C-627.4425647 308.58278473 -627.45275635 307.61088196 -627.46325684 306.60952759 C-627.49364123 303.36462745 -627.50272012 300.12002463 -627.51171875 296.875 C-627.52861054 294.58006866 -627.54676662 292.28514631 -627.56611633 289.99023438 C-627.61385727 283.894195 -627.6434244 277.79819141 -627.66955566 271.70202637 C-627.69859943 265.71012038 -627.74583621 259.71836435 -627.79101562 253.7265625 C-628.01520114 222.48456538 -628.04101974 191.24265415 -628 160 C-634.94535043 162.62174854 -641.83473503 165.25039369 -648.546875 168.42578125 C-649.19300751 168.73005035 -649.83914001 169.03431946 -650.50485229 169.34780884 C-652.58896246 170.33107066 -654.66964565 171.32131938 -656.75 172.3125 C-658.24130327 173.01976116 -659.73267853 173.72687053 -661.22412109 174.43383789 C-665.0679556 176.258256 -668.90809792 178.09031485 -672.74719238 179.92468262 C-674.92243102 180.96297452 -677.09913363 181.99812551 -679.27636719 183.03222656 C-723.54260141 204.07268588 -768.98518507 226.68097633 -807 258 C-807.5053125 258.40669922 -808.010625 258.81339844 -808.53125 259.23242188 C-825.21258058 272.66334613 -847.28331874 290.6664288 -851 313 C-852.32646833 327.98256846 -846.85927174 339.56035206 -837.55859375 351.00390625 C-814.57061723 377.71862437 -778.77042412 390.52998901 -745.99609375 400.4609375 C-745.32820328 400.66402527 -744.66031281 400.86711304 -743.97218323 401.07635498 C-740.69674124 402.06930657 -737.41754383 403.04495047 -734.12915039 403.99414062 C-732.36365845 404.51911133 -732.36365845 404.51911133 -730.5625 405.0546875 C-729.51191406 405.35874512 -728.46132813 405.66280273 -727.37890625 405.97607422 C-726.20134766 406.48291748 -726.20134766 406.48291748 -725 407 C-724.67 407.99 -724.34 408.98 -724 410 C-730.80538579 410.05180558 -737.61071876 410.08618195 -744.41625977 410.10986328 C-746.71901345 410.1197621 -749.02175515 410.13328451 -751.32446289 410.15087891 C-773.48028325 410.3156062 -795.32885032 409.00039973 -817.25 405.75 C-817.97648743 405.6442868 -818.70297485 405.53857361 -819.45147705 405.42965698 C-900.80024621 393.53024181 -900.80024621 393.53024181 -929 368 C-929.77988281 367.30132813 -930.55976562 366.60265625 -931.36328125 365.8828125 C-942.24653367 355.60316904 -948.86446246 343.49086098 -949.47045898 328.38134766 C-949.80592652 302.048532 -933.96044858 283.45393317 -916.53466797 265.54589844 C-913.50682092 262.49589406 -910.31741563 259.72613142 -907 257 C-906.09636719 256.20851563 -905.19273437 255.41703125 -904.26171875 254.6015625 C-890.79627174 242.83945905 -876.02559437 232.65905495 -861 223 C-860.26571777 222.5265918 -859.53143555 222.05318359 -858.77490234 221.56542969 C-823.14814691 198.72946919 -784.856693 179.66616162 -746 163 C-744.98897217 162.56554565 -744.98897217 162.56554565 -743.95751953 162.12231445 C-721.34099321 152.41568449 -698.49932763 143.37836677 -675.40130615 134.88354492 C-672.99534053 133.99828558 -670.59066582 133.10958125 -668.18603516 132.22070312 C-603.00576662 108.18162085 -536.25341502 88.66179598 -468.90142822 71.72991943 C-466.0538786 71.01355437 -463.20728321 70.29350049 -460.36083984 69.57275391 C-364.34238033 45.30904327 -266.60518786 27.29808444 -21.6875 0.0625 C-20.78523682 -0.00361481 -19.88297363 -0.06972961 -18.95336914 -0.1378479 C-16.47327346 -0.31704607 -13.99275949 -0.48681015 -11.51171875 -0.65234375 C-10.79843918 -0.70403717 -10.08515961 -0.75573059 -9.3502655 -0.80899048 C-6.03804724 -1.01698187 -3.16502211 -1.07890449 0 0 Z " fill="#7DBD42" transform="translate(1081,252)"/>
<path d="M0 0 C0.93079376 -0.0065712 1.86158752 -0.0131424 2.82058716 -0.01991272 C5.88543792 -0.03954625 8.95024012 -0.05128108 12.01513672 -0.0612793 C13.06376766 -0.06535482 14.11239861 -0.06943035 15.19280624 -0.07362938 C20.73465526 -0.09443954 26.27647982 -0.10876761 31.81835938 -0.11816406 C37.5462914 -0.12926668 43.27383904 -0.1637252 49.0016346 -0.20333576 C53.40592183 -0.2294301 57.81011598 -0.2378491 62.21447372 -0.24144554 C64.32683813 -0.24632376 66.43919804 -0.25797266 68.55148697 -0.27648354 C71.50078626 -0.30073998 74.44906975 -0.29993561 77.3984375 -0.29296875 C78.70923279 -0.31218384 78.70923279 -0.31218384 80.04650879 -0.33178711 C80.85109528 -0.32484329 81.65568176 -0.31789948 82.48464966 -0.31074524 C83.18110659 -0.31313359 83.87756351 -0.31552195 84.5951252 -0.31798267 C87.66129071 0.45059258 88.73754324 1.6064971 90.56982422 4.17700195 C90.9659458 7.09490029 91.1171928 9.63674163 91.08880615 12.55450439 C91.0963074 13.40730098 91.10380866 14.26009758 91.11153722 15.13873649 C91.13186373 18.00102138 91.12370203 20.86251787 91.11572266 23.72485352 C91.12445497 25.77468654 91.13493955 27.82451275 91.14704895 29.87432861 C91.17497134 35.44421601 91.17831225 41.01388169 91.17732906 46.58382893 C91.1804528 52.40284028 91.20605975 58.22175097 91.22930908 64.04071045 C91.26991397 75.06202491 91.29022036 86.08328013 91.30328298 97.10465789 C91.31913781 109.651119 91.35754704 122.1974791 91.39787626 134.7438817 C91.48033666 160.55488791 91.53439041 186.36589139 91.56982422 212.17700195 C101.09581158 210.45008687 110.621572 208.72192629 120.14707208 206.99232543 C124.57379499 206.18857653 129.00058496 205.38520152 133.42755127 204.58279419 C155.07509944 200.65874876 176.71151507 196.68747845 198.31982422 192.55200195 C199.39988487 192.34543598 200.47994553 192.13887001 201.59273529 191.92604446 C207.9262222 190.71266875 214.25152063 189.46712516 220.56982422 188.17700195 C221.41440186 188.00849731 222.25897949 187.83999268 223.12915039 187.66638184 C225.53562147 187.1807224 227.93572174 186.67139228 230.33544922 186.15356445 C231.39901642 185.94284805 231.39901642 185.94284805 232.48406982 185.72787476 C236.12135675 184.97997612 236.12135675 184.97997612 238.74900055 182.55112457 C239.86551818 179.32174674 239.82701609 176.49738862 239.83483887 173.07922363 C239.84141077 172.00639798 239.84141077 172.00639798 239.84811544 170.91189909 C239.86043784 168.51517707 239.8586272 166.11867386 239.85693359 163.72192383 C239.8629576 162.00370458 239.86988179 160.28548829 239.87763977 158.567276 C239.89253179 154.86719395 239.9012787 151.1671659 239.90534973 147.46705627 C239.91205885 141.6183227 239.93380753 135.76970482 239.95788574 129.92102051 C240.00686981 117.50637474 240.03918702 105.09170451 240.06982422 92.67700195 C240.10289762 79.27511018 240.13878153 65.87326364 240.19395494 52.47144175 C240.2173273 46.6553132 240.23105043 40.83926508 240.23744965 35.02309418 C240.24338025 31.40753377 240.25746954 27.79203875 240.27379417 24.17651176 C240.27967927 22.49791244 240.28214051 20.81929716 240.28095436 19.14068794 C240.27979796 16.85191243 240.29078932 14.56350573 240.30480957 12.27478027 C240.30920925 10.35233868 240.30920925 10.35233868 240.31369781 8.39105988 C240.555076 5.36207313 240.86950156 3.66034962 242.56982422 1.17700195 C244.85515326 0.03433743 246.12302174 0.04899049 248.66246033 0.04328918 C249.51911789 0.0390242 250.37577545 0.03475922 251.25839233 0.03036499 C252.20026398 0.03081818 253.14213562 0.03127136 254.11254883 0.03173828 C255.1028862 0.02837967 256.09322357 0.02502106 257.11357117 0.02156067 C260.39978272 0.01203192 263.68594344 0.01010663 266.97216797 0.0090332 C269.24898805 0.00582209 271.52580792 0.00245814 273.80262756 -0.00105286 C278.58009317 -0.00704885 283.35754066 -0.00889226 288.13500977 -0.00830078 C294.26659045 -0.0081991 300.39805548 -0.02185526 306.52960873 -0.03907299 C311.23324622 -0.05017326 315.93685558 -0.0522206 320.64050484 -0.05169106 C322.90160076 -0.052874 325.16269735 -0.05731329 327.42378044 -0.06502342 C330.58183853 -0.07478403 333.7396432 -0.07196086 336.89770508 -0.06591797 C337.83755249 -0.07153748 338.7773999 -0.07715698 339.74572754 -0.08294678 C341.03494362 -0.07665504 341.03494362 -0.07665504 342.35020447 -0.07023621 C343.09702453 -0.07078097 343.84384459 -0.07132574 344.61329556 -0.07188702 C346.56982422 0.17700195 346.56982422 0.17700195 349.56982422 2.17700195 C350.90874713 5.56122899 350.69022253 9.06312044 350.68334961 12.66062927 C350.68349847 13.30980397 350.68364733 13.95897866 350.6838007 14.62782532 C350.68310674 16.80107034 350.67526687 18.97423062 350.66748047 21.14746094 C350.66556113 22.70642041 350.6640974 24.26538051 350.66305542 25.82434082 C350.65989451 29.18065469 350.65362598 32.5369434 350.64498901 35.8932476 C350.63147139 41.20031929 350.62557341 46.50738259 350.62084961 51.81446838 C350.60880198 64.03925783 350.58675108 76.26402545 350.56462097 88.48880005 C350.54444396 99.69019801 350.52637282 110.89158864 350.51640606 122.09300095 C350.51142279 127.36861402 350.50156152 132.64418871 350.48797607 137.91978633 C350.48051621 141.20212605 350.47720073 144.48446049 350.47500992 147.76680756 C350.47313799 149.28858061 350.46953718 150.81035267 350.464077 152.33211708 C350.45685562 154.41023295 350.45582345 156.48826468 350.45629883 158.56639099 C350.45296791 160.31046565 350.45296791 160.31046565 350.4495697 162.08977413 C350.55932421 164.90744102 350.92298428 167.43844112 351.56982422 170.17700195 C352.78589355 170.05510498 354.00196289 169.93320801 355.25488281 169.80761719 C359.76319207 169.3559359 364.27166323 168.90588545 368.78015137 168.45599365 C371.33550494 168.20043593 373.89067204 167.94309662 376.44580078 167.68530273 C397.75532152 165.54410398 419.06529358 163.76872621 440.44482422 162.48950195 C441.94133514 162.39863815 441.94133514 162.39863815 443.46807861 162.30593872 C471.32719234 160.63273509 499.1661986 159.96700232 527.06982422 159.98950195 C528.19104612 159.98990227 528.19104612 159.98990227 529.33491898 159.99031067 C602.10894692 160.02276345 675.14695695 165.06839841 746.13232422 181.86450195 C746.94596436 182.05677368 747.75960449 182.24904541 748.59790039 182.44714355 C756.70124129 184.37425306 764.7244177 186.34618517 772.56982422 189.17700195 C772.56982422 189.50700195 772.56982422 189.83700195 772.56982422 190.17700195 C762.51197553 189.71206685 752.46145656 189.20147503 742.41748047 188.4934082 C667.03150028 183.18423074 591.05106045 181.85599028 515.56982422 186.17700195 C513.87209869 186.27174805 513.87209869 186.27174805 512.14007568 186.3684082 C418.19959007 191.62391006 324.97664393 203.70735374 -225.43017578 337.17700195 C-226.10034729 337.44514709 -226.7705188 337.71329224 -227.46099854 337.98956299 C-294.63081505 364.89940977 -366.35708036 396.59139703 -420.19970703 446.13012695 C-422.26313853 448.02371382 -424.36592159 449.85526359 -426.49267578 451.67700195 C-431.02674373 455.62246879 -435.21819477 459.89376563 -439.43017578 464.17700195 C-440.76236019 465.51148323 -442.0953401 466.84517266 -443.43017578 468.17700195 C-445.55811063 461.96930237 -442.715627 455.1792071 -440.24267578 449.40356445 C-430.29864128 430.1369976 -413.46624215 414.24760154 -396.20458984 401.49829102 C-394.34093533 400.11055048 -392.50575923 398.69037587 -390.67236328 397.26293945 C-380.67796717 389.53412378 -370.23743158 382.71058103 -359.43017578 376.17700195 C-358.55989746 375.64913086 -357.68961914 375.12125977 -356.79296875 374.57739258 C-285.30849652 331.46263613 -206.82582058 300.85361749 -88.86767578 259.36450195 C-87.80965759 259.00298035 -86.7516394 258.64145874 -85.66156006 258.26898193 C-75.23595649 254.71620541 -64.80471957 251.21875041 -54.24267578 248.09106445 C-53.47069351 247.86209976 -52.69871124 247.63313507 -51.90333557 247.39723206 C-48.41295765 246.3682383 -44.91820663 245.36242849 -41.41040039 244.39453125 C-29.48896892 241.01649911 -29.48896892 241.01649911 -20.8431015 232.64552593 C-19.05112016 228.24647639 -19.01378222 224.63362485 -19.05163574 219.93379211 C-19.04710561 219.01198298 -19.04257548 218.09017385 -19.03790808 217.14043111 C-19.02629536 214.05652985 -19.03592653 210.97306325 -19.04541016 207.88916016 C-19.04130466 205.67641927 -19.03584392 203.46368055 -19.02912903 201.25094604 C-19.01740561 196.48900764 -19.01491907 191.72718513 -19.01948547 186.96523476 C-19.0262888 179.44056391 -19.01043919 171.91604598 -18.99108887 164.3914032 C-18.96608402 153.84719999 -18.94934119 143.30301675 -18.94140625 132.75878906 C-18.94064548 131.75572649 -18.94064548 131.75572649 -18.93986934 130.73240002 C-18.93583632 125.30500377 -18.93234172 119.8776072 -18.92887211 114.45021057 C-18.92581409 109.70150737 -18.92254205 104.95280439 -18.91894531 100.20410156 C-18.9184427 99.53530011 -18.91794008 98.86649865 -18.91742224 98.17743049 C-18.90868468 87.0341481 -18.88814064 75.89091037 -18.85946321 64.74766034 C-18.84106103 57.26198014 -18.83723076 49.77647432 -18.8443985 42.29077685 C-18.84591563 37.64277712 -18.83516684 32.99486542 -18.82102013 28.3468895 C-18.81700291 26.18570855 -18.8181671 24.02451108 -18.82479286 21.86333656 C-18.83312121 18.92176078 -18.82324545 15.98079918 -18.80871582 13.03926086 C-18.81905672 11.74531268 -18.81905672 11.74531268 -18.82960653 10.42522413 C-18.77328809 4.60537276 -18.77328809 4.60537276 -17.0690341 2.47763604 C-12.67122135 -1.0125651 -5.37406218 0.01661311 0 0 Z " fill="#0F78AE" transform="translate(472.43017578125,17.822998046875)"/>
<path d="M0 0 C-0.33 0.66 -0.66 1.32 -1 2 C-3.55918884 2.44491577 -3.55918884 2.44491577 -7.03881836 2.72412109 C-8.34887344 2.83422516 -9.65892853 2.94432922 -11.00868225 3.05776978 C-12.47323054 3.17139717 -13.93778457 3.28495056 -15.40234375 3.3984375 C-16.93635278 3.52446847 -18.47028197 3.65147444 -20.00413513 3.77938843 C-23.2959156 4.05266099 -26.58805714 4.32083082 -29.8805542 4.58532715 C-37.48658283 5.1982569 -45.08912464 5.85214824 -52.69203949 6.50235558 C-55.35552418 6.72990445 -58.01909042 6.95647699 -60.68267822 7.18281555 C-165.56260866 16.05852189 -165.56260866 16.05852189 -270 29 C-271.03068604 29.14741638 -272.06137207 29.29483276 -273.12329102 29.44671631 C-390.49215229 46.25865772 -506.68840521 72.18804153 -775 162 C-775.62183167 162.25547607 -776.24366333 162.51095215 -776.88433838 162.77416992 C-796.42532716 170.80568193 -815.80050407 179.17922992 -835 188 C-835.6690033 188.30721985 -836.33800659 188.6144397 -837.02728271 188.93096924 C-865.12727415 201.85153877 -892.69617117 215.45643685 -919.25244141 231.36083984 C-921.90200991 232.9415403 -924.5637679 234.49920034 -927.23046875 236.05078125 C-963.63720646 257.35502283 -1010.63557933 288.03887733 -1023 331 C-1025.32216942 340.77507805 -1024.25123388 349.72406056 -1020.97265625 359.125 C-1020.08487493 361.7491247 -1019.4758503 364.27513089 -1019 367 C-1056.81444545 358.20936917 -1056.81444545 358.20936917 -1066 344 C-1073.22260558 331.37843676 -1073.19392766 317.31221831 -1069.96875 303.515625 C-1063.4345231 279.80270479 -1044.93991448 260.77381255 -1026 246 C-1025.41186523 245.54077148 -1024.82373047 245.08154297 -1024.21777344 244.60839844 C-1014.17410751 236.81634833 -1003.81298558 229.67988976 -993 223 C-991.83863525 222.28021973 -991.83863525 222.28021973 -990.65380859 221.54589844 C-965.63848208 206.15262679 -939.41151274 192.61227209 -912.61279297 180.6171875 C-910.14258126 179.51145143 -907.67533493 178.40080154 -905.21142578 177.28125 C-867.51552491 160.16337748 -828.88830901 145.17382533 -790 131 C-789.13185669 130.68347473 -788.26371338 130.36694946 -787.3692627 130.04083252 C-736.24184204 111.43211873 -684.53866674 93.23082481 -632 79 C-631.07876343 78.74963989 -630.15752686 78.49927979 -629.20837402 78.24133301 C-539.77240689 53.97970717 -448.68364712 36.47391738 -108 -1 C-107.27993774 -1.02922546 -106.55987549 -1.05845093 -105.81799316 -1.08856201 C-32.35022885 -4.02685903 -32.35022885 -4.02685903 0 0 Z " fill="#818285" transform="translate(1116,227)"/>
<path d="M0 0 C4.99665477 3.22006641 7.47991813 7.76745703 10.1328125 12.9765625 C10.58340027 13.85484459 10.58340027 13.85484459 11.04309082 14.75086975 C12.01301303 16.64384543 12.97521962 18.54063012 13.9375 20.4375 C14.94420403 22.40654785 15.95285208 24.37459234 16.96151733 26.34263611 C17.63197353 27.65125975 18.30175525 28.96022916 18.97085571 30.26954651 C22.11796546 36.42546214 25.33614018 42.54275372 28.57861328 48.64892578 C30.58204127 52.43317865 32.53552384 56.23780281 34.44677734 60.06958008 C34.89145355 60.96058914 35.33612976 61.85159821 35.79428101 62.76960754 C36.13029327 63.44376205 36.46630554 64.11791656 36.8125 64.8125 C36.80583817 64.02989304 36.79917633 63.24728607 36.79231262 62.44096375 C36.73222568 55.06912878 36.6865381 47.69741239 36.65706348 40.32539654 C36.6414009 36.5352656 36.62015222 32.74533684 36.58618164 28.95532227 C36.5536087 25.29839399 36.53565145 21.6416603 36.52786827 17.98459816 C36.52232099 16.58871204 36.5114885 15.19283669 36.49530983 13.79703331 C36.47356571 11.8435541 36.47227485 9.88987949 36.47192383 7.9362793 C36.46526199 6.8237529 36.45860016 5.7112265 36.45173645 4.56498718 C36.8125 1.8125 36.8125 1.8125 38.12846375 -0.04972839 C40.90398769 -1.92493288 43.59512424 -1.50533611 46.875 -1.4375 C48.12410156 -1.42203125 49.37320313 -1.4065625 50.66015625 -1.390625 C53.8125 -1.1875 53.8125 -1.1875 55.8125 -0.1875 C55.88193032 12.14711335 55.93527583 24.4816804 55.96793652 36.81644917 C55.98360993 42.5436371 56.00487887 48.2706916 56.03881836 53.99780273 C56.0713519 59.52207442 56.08934038 65.04621755 56.09713173 70.57057762 C56.10268604 72.6809714 56.11353187 74.79135793 56.12969017 76.90169716 C56.1513845 79.8516945 56.15447027 82.80115677 56.15307617 85.7512207 C56.163862 86.62875504 56.17464783 87.50628937 56.1857605 88.41041565 C56.15506541 94.39067357 56.15506541 94.39067357 54.41429615 96.53421307 C51.31014121 99.01143259 47.31114423 98.32400534 43.5 98.3125 C42.65759766 98.34085938 41.81519531 98.36921875 40.94726562 98.3984375 C36.29212165 98.4129962 32.71656388 98.1230496 29.21899414 94.67724609 C25.90578695 90.28455793 23.60724994 85.29412164 21.1875 80.375 C20.26981153 78.5487268 19.34695709 76.72513005 18.42353821 74.90174866 C17.79910795 73.66854653 17.17613573 72.43460506 16.55461121 71.19993591 C13.19501916 64.54129447 9.60577785 58.01485203 5.98388672 51.49633789 C2.03867863 44.35302329 -1.52545623 37.13658753 -5.1875 29.8125 C-5.5175 51.9225 -5.8475 74.0325 -6.1875 96.8125 C-9.36143689 98.39946844 -12.76924205 97.9556447 -16.25 97.9375 C-16.99572266 97.94136719 -17.74144531 97.94523438 -18.50976562 97.94921875 C-24.06086499 97.93913501 -24.06086499 97.93913501 -25.1875 96.8125 C-25.29873944 93.90666576 -25.34490084 91.02437992 -25.34863281 88.11767578 C-25.35359772 87.205513 -25.35856262 86.29335022 -25.36367798 85.35354614 C-25.37834014 82.32162739 -25.38510832 79.28976095 -25.390625 76.2578125 C-25.39637311 74.15892535 -25.40213088 72.06003822 -25.40789795 69.96115112 C-25.41841949 65.55433913 -25.4242546 61.14754545 -25.42773438 56.74072266 C-25.43322155 51.08548186 -25.45724957 45.43048155 -25.48570633 39.77531624 C-25.50430209 35.43797085 -25.50953667 31.10068374 -25.51107025 26.76330185 C-25.51410424 24.67803508 -25.52215771 22.5927695 -25.53525543 20.50754166 C-25.55225203 17.59354454 -25.55045134 14.68013942 -25.54394531 11.76611328 C-25.5531601 10.89950073 -25.56237488 10.03288818 -25.5718689 9.14001465 C-25.53049833 3.24467143 -25.53049833 3.24467143 -23.85203171 1.12983513 C-18.47560045 -3.12515247 -6.24000458 -2.41680702 0 0 Z " fill="#0F78AE" transform="translate(917.1875,693.1875)"/>
<path d="M0 0 C4.69054098 3.02279307 7.19292336 7.20459293 9.6953125 12.1015625 C10.21786621 13.11629639 10.74041992 14.13103027 11.27880859 15.17651367 C11.82617676 16.25263916 12.37354492 17.32876465 12.9375 18.4375 C14.09849854 20.69685092 15.25996143 22.95596327 16.421875 25.21484375 C16.99486328 26.3322998 17.56785156 27.44975586 18.15820312 28.60107422 C20.83009044 33.78791096 23.56166501 38.94291702 26.30126953 44.09423828 C28.75458279 48.73118595 31.12196855 53.40847854 33.46337891 58.1027832 C33.78635452 58.74956276 34.10933014 59.39634232 34.4420929 60.06272125 C35.23256507 61.64581287 36.02257912 63.22913323 36.8125 64.8125 C36.80583817 64.02989304 36.79917633 63.24728607 36.79231262 62.44096375 C36.73222568 55.06912878 36.6865381 47.69741239 36.65706348 40.32539654 C36.6414009 36.5352656 36.62015222 32.74533684 36.58618164 28.95532227 C36.5536087 25.29839399 36.53565145 21.6416603 36.52786827 17.98459816 C36.52232099 16.58871204 36.5114885 15.19283669 36.49530983 13.79703331 C36.47356571 11.8435541 36.47227485 9.88987949 36.47192383 7.9362793 C36.46526199 6.8237529 36.45860016 5.7112265 36.45173645 4.56498718 C36.8125 1.8125 36.8125 1.8125 38.12846375 -0.04972839 C40.90398769 -1.92493288 43.59512424 -1.50533611 46.875 -1.4375 C48.12410156 -1.42203125 49.37320313 -1.4065625 50.66015625 -1.390625 C53.8125 -1.1875 53.8125 -1.1875 55.8125 -0.1875 C55.88193032 12.14711335 55.93527583 24.4816804 55.96793652 36.81644917 C55.98360993 42.5436371 56.00487887 48.2706916 56.03881836 53.99780273 C56.0713519 59.52207442 56.08934038 65.04621755 56.09713173 70.57057762 C56.10268604 72.6809714 56.11353187 74.79135793 56.12969017 76.90169716 C56.1513845 79.8516945 56.15447027 82.80115677 56.15307617 85.7512207 C56.163862 86.62875504 56.17464783 87.50628937 56.1857605 88.41041565 C56.15506821 94.3901275 56.15506821 94.3901275 54.41528797 96.53520489 C51.30271359 99.01568023 47.25434068 98.28152046 43.4375 98.25 C42.58671875 98.26998047 41.7359375 98.28996094 40.859375 98.31054688 C37.12242392 98.30763648 34.46487434 98.13634723 31.08984375 96.4609375 C27.57119773 92.36892721 25.23242015 87.77249509 22.75 83 C21.90562378 81.40877319 21.90562378 81.40877319 21.04418945 79.78540039 C19.28791359 76.4674451 17.54841708 73.14114553 15.8125 69.8125 C14.73447684 67.75515497 13.65635511 65.69786158 12.578125 63.640625 C10.56301234 59.78890997 8.55627358 55.9329778 6.5546875 52.07421875 C3.50833519 46.21004369 0.38478177 40.3890535 -2.76171875 34.578125 C-4.1875 31.8125 -4.1875 31.8125 -5.1875 28.8125 C-5.5175 51.2525 -5.8475 73.6925 -6.1875 96.8125 C-9.22179677 98.32964839 -12.36351667 97.95613916 -15.6875 97.9375 C-16.37714844 97.94136719 -17.06679688 97.94523438 -17.77734375 97.94921875 C-22.93416707 97.93916646 -22.93416707 97.93916646 -25.1875 96.8125 C-25.25693137 84.60827085 -25.31027636 72.4040885 -25.34293652 60.19970226 C-25.3586097 54.53304773 -25.37987822 48.86652807 -25.41381836 43.19995117 C-25.44635272 37.73403404 -25.46434055 32.26824684 -25.47213173 26.80224037 C-25.47768589 24.71417507 -25.48853145 22.62611708 -25.50469017 20.53810692 C-25.52638562 17.61924094 -25.52947022 14.70091571 -25.52807617 11.78198242 C-25.538862 10.91379883 -25.54964783 10.04561523 -25.5607605 9.15112305 C-25.5301222 3.24444145 -25.5301222 3.24444145 -23.85245228 1.12941456 C-18.47439229 -3.12442839 -6.24084857 -2.41713391 0 0 Z " fill="#0F78AE" transform="translate(330.1875,693.1875)"/>
<path d="M0 0 C8.83823595 6.45871088 13.42467438 16.10697004 15.65673828 26.60717773 C16.4448944 31.7406254 16.39004057 36.87951807 16.375 42.0625 C16.39111328 43.16142578 16.40722656 44.26035156 16.42382812 45.39257812 C16.43235435 59.86158727 12.62833782 73.42074051 2.5546875 84.140625 C-8.68015829 93.64974212 -22.59319997 96.13385931 -36.9375 95.25 C-49.30279686 93.99304479 -59.5358057 90.79445349 -67.9375 81.25 C-78.19545477 67.07252103 -78.85340398 47.74791479 -76.62841797 30.91113281 C-74.56948033 19.48310858 -69.36417711 8.37663759 -59.9375 1.25 C-42.0371805 -9.44081151 -18.21573406 -11.00158196 0 0 Z M-48.3125 17.5625 C-57.16789331 29.0180919 -56.12720968 45.16475468 -54.51171875 58.859375 C-52.72072635 66.63865486 -48.52175672 71.86049552 -41.9375 76.25 C-35.23587469 78.60091184 -26.12582691 78.58192828 -19.63671875 75.87109375 C-13.53704994 72.20776154 -9.1074253 66.78548854 -6.87109375 60.02734375 C-3.83467275 47.74190817 -3.16625946 31.20640555 -9.67578125 19.9296875 C-13.36639479 15.01648681 -17.82804057 11.40272819 -23.9375 10.25 C-33.47143058 9.37582872 -41.58259846 10.23878362 -48.3125 17.5625 Z " fill="#0F78AE" transform="translate(758.9375,697.75)"/>
<path d="M0 0 C1.9790332 0.0009668 1.9790332 0.0009668 3.99804688 0.00195312 C5.0263562 0.01440063 5.0263562 0.01440063 6.07543945 0.02709961 C8.12297228 0.05035885 10.16916835 0.04769671 12.21679688 0.04101562 C39.17357713 0.09743315 39.17357713 0.09743315 49.03515625 8.86328125 C55.17169505 15.87646845 56.71867046 21.71047719 56.52734375 31.04296875 C55.86436145 38.26777589 53.65736289 43.44401916 48.22265625 48.30078125 C46.90813285 49.34572465 45.5748776 50.36760264 44.22265625 51.36328125 C43.48015625 51.92144531 42.73765625 52.47960937 41.97265625 53.0546875 C41.39515625 53.48652344 40.81765625 53.91835938 40.22265625 54.36328125 C41.34220703 55.13478516 41.34220703 55.13478516 42.484375 55.921875 C45.64174955 58.7369379 47.26719333 61.66562371 49.03515625 65.42578125 C49.36773437 66.11389893 49.7003125 66.8020166 50.04296875 67.51098633 C52.72392009 73.13583811 55.25435065 78.8298331 57.72265625 84.55078125 C58.07303955 85.35201416 58.42342285 86.15324707 58.78442383 86.97875977 C61.80976217 94.16384309 61.80976217 94.16384309 61.22265625 98.36328125 C58.98149598 100.60444152 53.85667263 99.59573597 50.84765625 99.61328125 C49.97109375 99.63390625 49.09453125 99.65453125 48.19140625 99.67578125 C47.34835937 99.6809375 46.5053125 99.68609375 45.63671875 99.69140625 C44.86279785 99.70075195 44.08887695 99.71009766 43.29150391 99.71972656 C40.5808448 99.25270245 39.86439794 98.56221309 38.22265625 96.36328125 C37.29542281 94.40062835 36.45201471 92.39759723 35.6640625 90.375 C35.19548828 89.19357422 34.72691406 88.01214844 34.24414062 86.79492188 C33.75698132 85.54719921 33.27065968 84.29914917 32.78515625 83.05078125 C31.83456978 80.61466288 30.87772773 78.18097443 29.9140625 75.75 C29.49326416 74.66936279 29.07246582 73.58872559 28.63891602 72.4753418 C26.21107925 67.14046241 23.77825676 62.65798581 18.22265625 60.36328125 C16.50127221 60.12984727 14.77337103 59.94191003 13.04296875 59.7890625 C12.14078613 59.70696533 11.23860352 59.62486816 10.30908203 59.5402832 C9.62056152 59.48187256 8.93204102 59.42346191 8.22265625 59.36328125 C8.23051147 61.1275647 8.23051147 61.1275647 8.23852539 62.92749023 C8.25657288 67.27530156 8.26808733 71.62310955 8.27758789 75.97094727 C8.28262869 77.85571855 8.28946123 79.7404859 8.2980957 81.62524414 C8.31017242 84.32829761 8.31588693 87.03129956 8.3203125 89.734375 C8.32547379 90.58229111 8.33063507 91.43020721 8.33595276 92.30381775 C8.3361482 94.32399193 8.28471836 96.34406059 8.22265625 98.36328125 C6.70056035 99.88537715 5.34055543 99.49287646 3.22265625 99.49609375 C2.41828125 99.49738281 1.61390625 99.49867188 0.78515625 99.5 C-0.06046875 99.49613281 -0.90609375 99.49226562 -1.77734375 99.48828125 C-2.62296875 99.49214844 -3.46859375 99.49601563 -4.33984375 99.5 C-5.14421875 99.49871094 -5.94859375 99.49742187 -6.77734375 99.49609375 C-7.51984375 99.49496582 -8.26234375 99.49383789 -9.02734375 99.49267578 C-10.77734375 99.36328125 -10.77734375 99.36328125 -11.77734375 98.36328125 C-11.89925386 95.42711621 -11.95599544 92.51407643 -11.97021484 89.57666016 C-11.97839233 88.6547438 -11.98656982 87.73282745 -11.99499512 86.78297424 C-12.01989874 83.71860414 -12.03637654 80.65428046 -12.05078125 77.58984375 C-12.05610493 76.54641186 -12.0614286 75.50297997 -12.0669136 74.42792892 C-12.09366502 68.90671268 -12.11303475 63.38551922 -12.12744141 57.86425781 C-12.14410682 52.14832409 -12.18889499 46.432965 -12.23981285 40.71724892 C-12.27339314 36.33358055 -12.28500867 31.95005018 -12.29066849 27.56626511 C-12.29740504 25.45863827 -12.31268893 23.35102126 -12.3365593 21.24351883 C-12.36802025 18.29809347 -12.36827652 15.3542392 -12.36083984 12.40869141 C-12.37724518 11.53272812 -12.39365051 10.65676483 -12.41055298 9.7542572 C-12.38730506 7.51281778 -12.32558319 5.53650492 -11.77734375 3.36328125 C-8.04355724 0.10073113 -4.86018144 -0.01224227 0 0 Z M8.22265625 17.36328125 C8.22265625 25.94328125 8.22265625 34.52328125 8.22265625 43.36328125 C11.99703125 43.45609375 11.99703125 43.45609375 15.84765625 43.55078125 C16.62834473 43.57809326 17.4090332 43.60540527 18.21337891 43.63354492 C24.10832118 43.70313487 28.0715991 42.23130457 32.59765625 38.30078125 C34.9803209 33.99365669 34.98528165 30.17783552 34.22265625 25.36328125 C32.57961487 21.95549171 31.45599733 20.03977804 28.12890625 18.21484375 C24.17226279 17.05550467 20.50530133 17.14972486 16.41015625 17.23828125 C13.70828125 17.27953125 11.00640625 17.32078125 8.22265625 17.36328125 Z " fill="#0F78AE" transform="translate(418.77734375,691.63671875)"/>
<path d="M0 0 C0.67675781 -0.00773438 1.35351562 -0.01546875 2.05078125 -0.0234375 C5.74919257 -0.00884811 7.34603337 0.14735558 10.5 2.25 C10.76667539 5.08727325 10.84791234 7.70383045 10.79296875 10.5390625 C10.78872391 11.35748627 10.78447906 12.17591003 10.78010559 13.01913452 C10.76328679 15.63808836 10.72562974 18.25627802 10.6875 20.875 C10.67245726 22.6484264 10.65876814 24.42186484 10.64648438 26.1953125 C10.61592191 30.54740761 10.55720942 34.89784659 10.5 39.25 C22.38 39.25 34.26 39.25 46.5 39.25 C46.5 26.71 46.5 14.17 46.5 1.25 C50.00095311 0.08301563 52.8122232 0.11731713 56.5 0.125 C58.35625 0.12113281 58.35625 0.12113281 60.25 0.1171875 C63.5 0.25 63.5 0.25 66.5 1.25 C66.52312132 13.87995485 66.54091401 26.5099047 66.55181217 39.13987637 C66.55704146 45.00382164 66.56413994 50.86775249 66.57543945 56.73168945 C66.5862667 62.38561712 66.59227649 68.03953087 66.59487724 73.69346809 C66.59673179 75.8557361 66.60035295 78.01800331 66.60573006 80.18026543 C66.61293833 83.19758657 66.61399103 86.21484943 66.61352539 89.23217773 C66.61712067 90.1356041 66.62071594 91.03903046 66.62442017 91.96983337 C66.61405216 98.13594784 66.61405216 98.13594784 65.5 99.25 C64.16956375 99.3483721 62.83406656 99.38078592 61.5 99.3828125 C60.695625 99.38410156 59.89125 99.38539063 59.0625 99.38671875 C58.216875 99.38285156 57.37125 99.37898437 56.5 99.375 C55.654375 99.37886719 54.80875 99.38273438 53.9375 99.38671875 C53.133125 99.38542969 52.32875 99.38414062 51.5 99.3828125 C50.7575 99.38168457 50.015 99.38055664 49.25 99.37939453 C47.5 99.25 47.5 99.25 46.5 98.25 C46.41128727 95.22022196 46.3848065 92.21332978 46.40234375 89.18359375 C46.4037587 88.27497086 46.40517365 87.36634796 46.40663147 86.43019104 C46.41224807 83.51592779 46.42480335 80.60174019 46.4375 77.6875 C46.44251286 75.71679798 46.44707614 73.74609476 46.45117188 71.77539062 C46.46137383 66.93354086 46.48094591 62.09185553 46.5 57.25 C34.62 57.25 22.74 57.25 10.5 57.25 C10.5 70.78 10.5 84.31 10.5 98.25 C7.21646451 99.89176774 3.60480362 99.43454039 0 99.4375 C-0.78503906 99.44974609 -1.57007813 99.46199219 -2.37890625 99.47460938 C-4.42063726 99.47986254 -6.46192251 99.3722018 -8.5 99.25 C-11.15780193 96.59219807 -10.75011179 94.61038308 -10.78216553 90.99455261 C-10.77968811 90.11656509 -10.77721069 89.23857758 -10.7746582 88.33398438 C-10.77976913 87.4103157 -10.78488007 86.48664703 -10.79014587 85.5349884 C-10.80408578 82.471177 -10.80308196 79.40758941 -10.80078125 76.34375 C-10.80466546 74.22147538 -10.80899955 72.09920153 -10.81376648 69.97692871 C-10.82123794 65.52479535 -10.82093049 61.07274127 -10.81567383 56.62060547 C-10.80987474 50.90361934 -10.82681645 45.18695671 -10.8500185 39.47002411 C-10.86471954 35.086386 -10.86563256 30.70282648 -10.86250877 26.31916809 C-10.86302371 24.21075296 -10.86829351 22.10233361 -10.87832069 19.99394226 C-10.89059904 17.05108341 -10.88394563 14.10886355 -10.87231445 11.16601562 C-10.87995819 10.28802811 -10.88760193 9.41004059 -10.89547729 8.50544739 C-10.8742218 6.08361816 -10.8742218 6.08361816 -10.5 2.25 C-6.87653931 -0.16564046 -4.18396018 -0.04781669 0 0 Z " fill="#0F78AE" transform="translate(142.5,691.75)"/>
<path d="M0 0 C1.85625 -0.00386719 1.85625 -0.00386719 3.75 -0.0078125 C7 0.125 7 0.125 10 1.125 C11.38900125 3.9030025 11.13239067 6.17524226 11.1418457 9.28369141 C11.14888016 10.57908844 11.15591461 11.87448547 11.16316223 13.20913696 C11.16497812 13.90402851 11.16679401 14.59892006 11.16866493 15.31486893 C11.17583617 17.49324388 11.1915101 19.67139431 11.21000671 21.84970093 C11.26242612 28.0441366 11.31038931 34.23845307 11.32592773 40.43310547 C11.33605537 44.2222798 11.36550527 48.0108943 11.40724754 51.79984665 C11.41950103 53.23897424 11.42468918 54.67818115 11.42244911 56.11735916 C11.41301976 64.15740768 11.48837997 70.31686634 16 77.125 C21.52816543 82.38349882 26.39899263 82.46751899 33.7578125 82.41015625 C39.07532301 81.94247159 42.08496495 80.10607074 45.8125 76.25 C48.52225722 71.40096077 49.25083494 66.92099106 49.27124023 61.41699219 C49.28142685 60.10253113 49.29161346 58.78807007 49.30210876 57.43377686 C49.30304976 56.73914085 49.30399075 56.04450485 49.30496025 55.32881927 C49.30864191 53.14328775 49.32541266 50.95820268 49.34571838 48.77276611 C49.40098847 42.5634386 49.43192136 36.35404903 49.45629883 30.14453125 C49.47213978 26.33790176 49.50230805 22.5315973 49.54106331 18.7251358 C49.55273018 17.27545865 49.55864381 15.82572354 49.55874443 14.37599945 C49.55893568 12.35576416 49.578667 10.33555895 49.59936523 8.31542969 C49.60697121 6.590513 49.60697121 6.590513 49.61473083 4.83074951 C49.74186966 3.93785217 49.86900848 3.04495483 50 2.125 C53.61463559 -0.28475706 56.3221926 -0.20739432 60.5 -0.1875 C61.17675781 -0.20361328 61.85351562 -0.21972656 62.55078125 -0.23632812 C67.46430459 -0.24117381 67.46430459 -0.24117381 69.69352722 1.28260803 C71.54314643 3.89094678 71.37420617 5.78506958 71.37231445 8.96655273 C71.38165764 10.77004433 71.38165764 10.77004433 71.39118958 12.60997009 C71.38197983 13.9130159 71.37277008 15.21606171 71.36328125 16.55859375 C71.36276207 17.9156138 71.36328202 19.27263462 71.36479187 20.62965393 C71.36470209 23.48034846 71.35427216 26.3307606 71.33618164 29.18139648 C71.31368835 32.80221115 71.31291426 36.42260634 71.31969929 40.04347134 C71.32307602 42.85168557 71.31633727 45.65980762 71.30657005 48.46800423 C71.30093613 50.44183207 71.30214293 52.41567572 71.30354309 54.38951111 C71.19942891 67.83189983 70.24153031 80.72614549 60.6875 91 C51.67234109 99.20610619 38.81617474 101.82929042 26.84765625 101.40625 C16.14953624 100.34964555 5.84196028 98.22742984 -1.83984375 90.203125 C-7.93859761 82.50885363 -10.13086004 74.79920042 -10.11352539 65.03979492 C-10.11367142 64.34656128 -10.11381744 63.65332764 -10.1139679 62.93908691 C-10.11327451 60.66118171 -10.10550915 58.38335957 -10.09765625 56.10546875 C-10.09579003 54.52077784 -10.09436709 52.93608635 -10.09336853 51.35139465 C-10.08955943 47.1905049 -10.07974292 43.02965032 -10.06866455 38.86877441 C-10.05841582 34.61890132 -10.0538635 30.36902252 -10.04882812 26.11914062 C-10.03811916 17.78774431 -10.02106211 9.45637654 -10 1.125 C-6.49904689 -0.04198437 -3.6877768 -0.00768287 0 0 Z " fill="#0F78AE" transform="translate(801,691.875)"/>
<path d="M0 0 C1.01422531 -0.00622879 2.02845062 -0.01245758 3.07341003 -0.01887512 C4.15689224 -0.00966537 5.24037445 -0.00045563 6.35668945 0.0090332 C7.47686966 0.0085347 8.59704987 0.00803619 9.75117493 0.00752258 C12.11391987 0.00985952 14.47666746 0.01956553 16.83935547 0.03613281 C20.46710281 0.05979575 24.09411857 0.05668191 27.72192383 0.05004883 C30.01685011 0.05562329 32.31177328 0.0627317 34.60668945 0.0715332 C35.69624435 0.0706218 36.78579926 0.06971039 37.90837097 0.06877136 C39.41552422 0.08306938 39.41552422 0.08306938 40.953125 0.09765625 C41.83961227 0.10226364 42.72609955 0.10687103 43.63945007 0.11161804 C45.7824707 0.37231445 45.7824707 0.37231445 47.7824707 2.37231445 C48.01293945 5.34106445 48.01293945 5.34106445 47.9699707 8.87231445 C47.96352539 10.03762695 47.95708008 11.20293945 47.95043945 12.40356445 C47.7824707 15.37231445 47.7824707 15.37231445 46.7824707 17.37231445 C34.5724707 17.37231445 22.3624707 17.37231445 9.7824707 17.37231445 C9.7824707 24.96231445 9.7824707 32.55231445 9.7824707 40.37231445 C20.0124707 40.37231445 30.2424707 40.37231445 40.7824707 40.37231445 C43.05939378 44.92616061 43.05939378 44.92616061 43.0324707 48.37231445 C43.04020508 49.36231445 43.04020508 49.36231445 43.0480957 50.37231445 C42.7824707 52.37231445 42.7824707 52.37231445 40.7824707 56.37231445 C30.5524707 56.37231445 20.3224707 56.37231445 9.7824707 56.37231445 C9.7824707 64.95231445 9.7824707 73.53231445 9.7824707 82.37231445 C12.35801758 82.34911133 14.93356445 82.3259082 17.5871582 82.30200195 C20.07592272 82.28641373 22.56468184 82.27426428 25.0534668 82.26245117 C26.78591335 82.2523807 28.51834286 82.23872356 30.25073242 82.22143555 C32.73791709 82.19723283 35.22487746 82.18584207 37.7121582 82.17700195 C38.87785843 82.1615181 38.87785843 82.1615181 40.06710815 82.14572144 C41.97372564 82.14532174 43.87978106 82.24999305 45.7824707 82.37231445 C47.7824707 84.37231445 47.7824707 84.37231445 48.01293945 87.34106445 C47.99875977 88.50637695 47.98458008 89.67168945 47.9699707 90.87231445 C47.96352539 92.03762695 47.95708008 93.20293945 47.95043945 94.40356445 C47.7824707 97.37231445 47.7824707 97.37231445 46.7824707 99.37231445 C39.14703731 99.44825036 31.51170093 99.50086614 23.87597656 99.53710938 C21.27730673 99.55221509 18.67866247 99.57270079 16.08007812 99.59863281 C12.34930112 99.63493688 8.61886057 99.65202303 4.88793945 99.6652832 C3.13938911 99.68850899 3.13938911 99.68850899 1.35551453 99.71220398 C0.27462051 99.71243057 -0.8062735 99.71265717 -1.91992188 99.71289062 C-2.87256424 99.71955246 -3.8252066 99.72621429 -4.80671692 99.733078 C-7.71929442 99.29722833 -8.40617897 98.63905303 -10.2175293 96.37231445 C-10.52430195 93.36127106 -10.64779017 90.55552081 -10.63745117 87.54223633 C-10.64592072 86.63953506 -10.65439026 85.7368338 -10.66311646 84.80677795 C-10.6865469 81.81806414 -10.68750726 78.82986322 -10.6862793 75.84106445 C-10.6933766 73.76745394 -10.70107496 71.6938454 -10.70935059 69.62023926 C-10.72280886 65.2724054 -10.72435782 60.92475318 -10.71850586 56.5769043 C-10.71260486 50.99770888 -10.74321197 45.41938218 -10.78362274 39.84035492 C-10.80943534 35.55787437 -10.81238308 31.27560487 -10.80873108 26.99305725 C-10.810428 24.93569249 -10.8201251 22.87831856 -10.83787537 20.82102966 C-10.85994077 17.9475538 -10.85042722 15.07586085 -10.83276367 12.20239258 C-10.84602692 11.34827286 -10.85929016 10.49415314 -10.87295532 9.614151 C-10.83898926 7.24353027 -10.83898926 7.24353027 -10.2175293 3.37231445 C-7.02438525 0.44437563 -4.24114006 -0.00300321 0 0 Z " fill="#0F78AE" transform="translate(240.217529296875,691.627685546875)"/>
<path d="M0 0 C3.35114308 3.46669974 2.94716529 6.15834082 2.9375 10.875 C2.94136719 12.7621875 2.94136719 12.7621875 2.9453125 14.6875 C2.8125 17.875 2.8125 17.875 1.8125 19.875 C-2.1495698 19.57784477 -4.635574 18.69723816 -7.8125 16.4375 C-13.38682393 12.76399917 -19.8861972 11.52255211 -26.5234375 12.06640625 C-32.50550785 13.33845569 -37.11391246 16.24267202 -40.875 21 C-47.88236153 31.82750379 -47.91024806 46.31426732 -45.42578125 58.66015625 C-43.2336474 65.65245673 -40.82248586 70.63548892 -34.1875 74.125 C-26.472879 77.80149907 -19.65759452 77.35982512 -11.61328125 74.80859375 C-9.35768821 73.94049917 -7.43137981 72.94641662 -5.375 71.6875 C-2.08137343 69.81465352 -0.82915113 69.69569969 2.8125 69.875 C2.9206866 72.45945773 2.99987237 75.03937352 3.0625 77.625 C3.09601563 78.35460937 3.12953125 79.08421875 3.1640625 79.8359375 C3.22684643 83.28905389 3.14776249 85.40670904 1.109375 88.25390625 C-1.27889426 89.93950445 -3.45139424 91.04063123 -6.1875 92.0625 C-7.033125 92.38605469 -7.87875 92.70960938 -8.75 93.04296875 C-19.67362129 96.77170486 -35.410256 96.95779933 -45.9375 92.1328125 C-46.68 91.71773437 -47.4225 91.30265625 -48.1875 90.875 C-49.3940625 90.22144531 -49.3940625 90.22144531 -50.625 89.5546875 C-56.15130811 86.22799545 -59.78757274 82.3190553 -63.1875 76.875 C-63.75597656 76.02035156 -63.75597656 76.02035156 -64.3359375 75.1484375 C-72.45433796 61.29222017 -71.56726012 41.41776252 -68.23046875 26.45703125 C-64.55928282 13.84850129 -58.23466783 5.06114931 -47.015625 -1.61328125 C-33.06910776 -9.06811851 -13.2815111 -8.85434073 0 0 Z " fill="#0F78AE" transform="translate(671.1875,697.125)"/>
<path d="M0 0 C0.82048828 -0.020625 1.64097656 -0.04125 2.48632812 -0.0625 C3.28103516 -0.06765625 4.07574219 -0.0728125 4.89453125 -0.078125 C5.6213208 -0.0874707 6.34811035 -0.09681641 7.09692383 -0.10644531 C9.97710988 0.38462927 11.10610327 1.17171603 13.1875 3.25 C14.53689679 5.78799122 15.7080874 8.23870133 16.82421875 10.875 C17.31158257 11.9899585 17.31158257 11.9899585 17.80879211 13.12744141 C18.84146621 15.49718584 19.85821096 17.87340296 20.875 20.25 C21.56995974 21.84939488 22.26591261 23.44835861 22.96289062 25.046875 C27.93258448 36.48525344 27.93258448 36.48525344 29.1875 40.25 C29.47737793 39.54182129 29.76725586 38.83364258 30.06591797 38.10400391 C33.32535169 30.20402049 36.75892726 22.39677878 40.3125 14.625 C40.83714844 13.45582031 41.36179687 12.28664063 41.90234375 11.08203125 C42.66611328 9.41333984 42.66611328 9.41333984 43.4453125 7.7109375 C43.9005127 6.70853027 44.35571289 5.70612305 44.82470703 4.67333984 C46.1875 2.25 46.1875 2.25 49.1875 0.25 C52.07962821 0.08088646 54.86194625 0.01696222 57.75 0.0625 C58.92079102 0.0634668 58.92079102 0.0634668 60.11523438 0.06445312 C65.90634586 0.10942293 65.90634586 0.10942293 68.1875 1.25 C67.86706573 8.31249451 64.64196681 13.42068418 61.21875 19.48046875 C41.56478123 55.37514336 41.56478123 55.37514336 38.96435547 95.6887207 C39.03799316 96.53394287 39.11163086 97.37916504 39.1875 98.25 C37.03017167 100.40732833 32.23951247 99.43520919 29.25 99.4375 C28.41275391 99.44974609 27.57550781 99.46199219 26.71289062 99.47460938 C25.91173828 99.47654297 25.11058594 99.47847656 24.28515625 99.48046875 C23.54789307 99.48457764 22.81062988 99.48868652 22.05102539 99.49291992 C20.1875 99.25 20.1875 99.25 18.1875 97.25 C18.08784435 94.73360002 18.10284418 92.3153764 18.1953125 89.8046875 C18.55354896 70.31537414 17.46278898 55.80708974 6.80078125 38.86523438 C4.20783417 34.66189765 2.00247514 30.26700196 -0.25 25.875 C-1.05602509 24.34109541 -1.86447977 22.80846414 -2.67578125 21.27734375 C-3.04268066 20.58366699 -3.40958008 19.88999023 -3.78759766 19.17529297 C-4.69678849 17.46736565 -5.61894719 15.76635562 -6.54296875 14.06640625 C-8.87955699 9.66157743 -10.60351781 6.39161577 -9.8125 1.25 C-7.66072304 -0.90177696 -2.9736484 0.01842695 0 0 Z " fill="#0F78AE" transform="translate(491.8125,691.75)"/>
<path d="M0 0 C0.77666016 -0.00386719 1.55332031 -0.00773438 2.35351562 -0.01171875 C5.67331172 -0.00599989 8.39243506 0.06831169 11.5625 1.125 C12.78275939 3.24403028 13.81416239 5.2826801 14.8125 7.50390625 C15.26157715 8.47214577 15.26157715 8.47214577 15.71972656 9.45994568 C16.35315905 10.83052159 16.98161007 12.203409 17.60546875 13.57836914 C18.54970832 15.65930935 19.50766466 17.73343519 20.46875 19.80664062 C23.40052159 26.16332252 26.24764447 32.51234285 28.5625 39.125 C30.93522936 36.75227064 31.70932689 34.69573747 32.98828125 31.59375 C33.45556641 30.47226562 33.92285156 29.35078125 34.40429688 28.1953125 C34.88962891 27.01710938 35.37496094 25.83890625 35.875 24.625 C45.32267699 1.7449115 45.32267699 1.7449115 48.5625 0.125 C49.92582016 0.03033739 51.29355517 -0.00572175 52.66015625 -0.0078125 C53.46130859 -0.00910156 54.26246094 -0.01039063 55.08789062 -0.01171875 C55.92513672 -0.00785156 56.76238281 -0.00398437 57.625 0 C58.46611328 -0.00386719 59.30722656 -0.00773438 60.17382812 -0.01171875 C66.43587318 -0.00162682 66.43587318 -0.00162682 67.5625 1.125 C67.45947819 8.99211996 63.93385853 14.829627 60.25 21.625 C59.61850413 22.83292383 58.98939045 24.04209576 58.36254883 25.25244141 C55.41283998 30.92418896 52.37816916 36.4969704 49 41.9296875 C39.31919751 58.14819323 38.95578908 73.43166728 39.63542175 91.86999512 C39.68371573 93.62116625 39.63182273 95.3745352 39.5625 97.125 C37.5625 99.125 37.5625 99.125 35.69897461 99.36791992 C34.59307983 99.36175659 34.59307983 99.36175659 33.46484375 99.35546875 C32.66369141 99.35353516 31.86253906 99.35160156 31.03710938 99.34960938 C30.19986328 99.33736328 29.36261719 99.32511719 28.5 99.3125 C27.65888672 99.31185547 26.81777344 99.31121094 25.95117188 99.31054688 C19.70273184 99.26523184 19.70273184 99.26523184 18.5625 98.125 C18.75192394 96.12027947 18.98373118 94.11956977 19.23046875 92.12109375 C21.46518267 66.2207837 11.38625288 46.80217494 -0.52856445 24.65600586 C-0.85131411 24.0556678 -1.17406376 23.45532974 -1.5065937 22.83679962 C-3.04646798 19.98102646 -4.60550875 17.13857619 -6.19439697 14.3097229 C-6.75165466 13.3039621 -7.30891235 12.29820129 -7.88305664 11.26196289 C-8.62465782 9.94924156 -8.62465782 9.94924156 -9.38124084 8.61000061 C-10.52880329 5.91019595 -10.65016278 4.02742107 -10.4375 1.125 C-7.17139423 -0.50805288 -3.58486773 -0.01776152 0 0 Z " fill="#0F78AE" transform="translate(1071.4375,691.875)"/>
<path d="M0 0 C1.87625061 0.00213753 1.87625061 0.00213753 3.79040527 0.00431824 C4.47998825 0.00241989 5.16957123 0.00052155 5.88005066 -0.00143433 C8.1647368 -0.00514599 10.44910665 0.00556753 12.73376465 0.01676941 C14.31795209 0.01796113 15.90214025 0.01841439 17.48632812 0.01815796 C20.80859797 0.01972351 24.13076016 0.02801845 27.45300293 0.04142761 C31.71707306 0.05841756 35.9810248 0.06224198 40.24512482 0.06148243 C43.51699967 0.06175403 46.78884851 0.06723366 50.06071472 0.07448387 C51.63323266 0.07767183 53.20575354 0.07963824 54.77827454 0.08037758 C56.97377571 0.0825398 59.16915 0.09128144 61.36462402 0.10197449 C62.61545776 0.10578629 63.8662915 0.10959808 65.1550293 0.11352539 C68.07751465 0.24723816 68.07751465 0.24723816 70.07751465 1.24723816 C72.41318754 7.08642039 71.30444256 12.67991839 69.07751465 18.24723816 C60.49751465 18.24723816 51.91751465 18.24723816 43.07751465 18.24723816 C43.07751465 44.64723816 43.07751465 71.04723816 43.07751465 98.24723816 C39.79397916 99.8890059 36.18231826 99.43177855 32.57751465 99.43473816 C31.79247559 99.44698425 31.00743652 99.45923035 30.1986084 99.47184753 C28.15687739 99.4771007 26.11559213 99.36943996 24.07751465 99.24723816 C21.60090161 96.77062512 21.84259248 95.3639337 21.82867432 91.98495483 C21.83586487 91.25343704 21.84305542 90.52191925 21.85046387 89.76823425 C21.85017181 88.99741013 21.84987976 88.226586 21.84957886 87.43240356 C21.85097491 84.87838071 21.86654885 82.3246477 21.88220215 79.77067566 C21.88593131 78.00233622 21.88877874 76.23399471 21.89077759 74.46565247 C21.89842172 69.80654721 21.91807687 65.14756622 21.94018555 60.48851013 C21.96062721 55.73622824 21.9697757 50.98392632 21.9798584 46.23161316 C22.00132205 36.90343349 22.03546737 27.57534615 22.07751465 18.24723816 C21.33066406 18.25771179 20.58381348 18.26818542 19.81433105 18.27897644 C16.44375956 18.32044586 13.07324165 18.34653545 9.70251465 18.37223816 C8.52688965 18.38899597 7.35126465 18.40575378 6.14001465 18.42301941 C4.45778809 18.43268738 4.45778809 18.43268738 2.74157715 18.44255066 C1.7046875 18.45302429 0.66779785 18.46349792 -0.4005127 18.47428894 C-2.92248535 18.24723816 -2.92248535 18.24723816 -4.92248535 16.24723816 C-5.18811035 13.05973816 -5.18811035 13.05973816 -5.17248535 9.24723816 C-5.1776416 7.98911316 -5.18279785 6.73098816 -5.18811035 5.43473816 C-4.83979477 1.25495123 -4.21211851 0.35633931 0 0 Z " fill="#0F78AE" transform="translate(988.9224853515625,691.7527618408203)"/>
</svg>
